<?xml version="1.0" encoding="utf-8"?><svg xml:space="preserve" viewBox="0 0 100 100" y="0" x="0" xmlns="http://www.w3.org/2000/svg" id="圖層_1" version="1.1" width="47px" height="47px" xmlns:xlink="http://www.w3.org/1999/xlink" style="width:100%;height:100%;background-size:initial;background-repeat-y:initial;background-repeat-x:initial;background-position-y:initial;background-position-x:initial;background-origin:initial;background-color:initial;background-clip:initial;background-attachment:initial;animation-play-state:paused" ><g class="ldl-scale" style="transform-origin:50% 50%;transform:rotate(0deg) scale(0.8, 0.8);animation-play-state:paused" ><path stroke-miterlimit="10" stroke-linejoin="round" stroke-linecap="round" stroke-width="3" stroke="#333" fill="#e0e0e0" d="M58.371 27.974h28.724A2.905 2.905 0 0 1 90 30.879v42.123a2.905 2.905 0 0 1-2.905 2.905H58.371c-4.489.014-7.19 1.133-8.195 4.16V32.575c1.705-3.364 4.506-4.774 8.195-4.601z" style="stroke:rgb(224, 224, 224);fill:rgb(255, 255, 255);animation-play-state:paused" ></path>
<path stroke-miterlimit="10" stroke-linejoin="round" stroke-linecap="round" stroke-width="3" stroke="#333" fill="#e0e0e0" d="M41.629 27.974H12.905A2.905 2.905 0 0 0 10 30.879v42.123a2.905 2.905 0 0 0 2.905 2.905h28.724c4.489.014 7.19 1.133 8.195 4.16V32.575c-1.705-3.364-4.506-4.774-8.195-4.601z" style="stroke:rgb(224, 224, 224);fill:rgb(255, 255, 255);animation-play-state:paused" ></path>
<path stroke-miterlimit="10" stroke-linejoin="round" stroke-linecap="round" stroke-width="3" stroke="#333" fill="#e0e0e0" d="M57.584 19.945h22.265a2.89 2.89 0 0 1 2.891 2.891V66.9a2.89 2.89 0 0 1-2.891 2.891H60.555c-5.537.054-8.479 2.939-10.396 8.39V24.113c1.546-3.047 4.083-4.325 7.425-4.168z" style="stroke:rgb(224, 224, 224);fill:rgb(255, 255, 255);animation-play-state:paused" ></path>
<path stroke-miterlimit="10" stroke-linejoin="round" stroke-linecap="round" stroke-width="3" stroke="#333" fill="#e0e0e0" d="M42.416 19.945H20.151a2.89 2.89 0 0 0-2.891 2.891V66.9a2.89 2.89 0 0 0 2.891 2.891h19.294c5.537.054 8.479 2.939 10.396 8.39V24.113c-1.546-3.047-4.083-4.325-7.425-4.168z" style="stroke:rgb(224, 224, 224);fill:rgb(255, 255, 255);animation-play-state:paused" ></path>
<metadata xmlns:d="https://loading.io/stock/" style="animation-play-state:paused" ><d:name style="animation-play-state:paused" >read</d:name>
<d:tags style="animation-play-state:paused" >study,learn,class,college,school,teach,read,books</d:tags>
<d:license style="animation-play-state:paused" >by</d:license>
<d:slug style="animation-play-state:paused" >cuoa9</d:slug></metadata></g><!-- generated by https://loading.io/ --></svg>