<?xml version="1.0" encoding="utf-8"?><svg xml:space="preserve" viewBox="0 0 100 100" y="0" x="0" xmlns="http://www.w3.org/2000/svg" id="圖層_1" version="1.1" xmlns:xlink="http://www.w3.org/1999/xlink" style="width:100%;height:100%;background-size:initial;background-repeat-y:initial;background-repeat-x:initial;background-position-y:initial;background-position-x:initial;background-origin:initial;background-color:initial;background-clip:initial;background-attachment:initial;animation-play-state:paused" ><g class="ldl-scale" style="transform-origin:50% 50%;transform:rotate(0deg) scale(0.8, 0.8);animation-play-state:paused" ><path fill="#849b87" d="M85.889 26.091v25.576c0 6.863-6.067 12.434-12.986 12.434H38.902c-1.068 2.833-2.531 4.585-4.335 6.619.7.213 1.442-.008 2.212-.008h28.297c1.815 7.556 6.647 13.057 14.203 15.244V70.711h3.066c5.609 0 10.156-4.547 10.156-10.156V33.857c-.001-4.133-2.834-7.504-6.612-7.766z" style="fill:rgb(241, 241, 241);animation-play-state:paused" ></path>
<path fill="#abbd81" d="M14.892 14.045H72.83a7.392 7.392 0 0 1 7.392 7.392v29.952c0 4.394-3.595 7.989-7.989 7.989H35.397c-1.815 6.611-7.12 11.97-13.731 14.158V59.378h-6.24c-4.36 0-7.927-3.567-7.927-7.927V21.437c.001-4.066 3.327-7.392 7.393-7.392z" style="fill:rgb(255, 255, 255);animation-play-state:paused" ></path>
<metadata xmlns:d="https://loading.io/stock/" style="animation-play-state:paused" ><d:name style="animation-play-state:paused" >discussion</d:name>
<d:tags style="animation-play-state:paused" >thread,interview,talk,chitchat,chat,discussion,conversation</d:tags>
<d:license style="animation-play-state:paused" >pro</d:license>
<d:slug style="animation-play-state:paused" >c7bovd</d:slug></metadata></g><!-- generated by https://loading.io/ --></svg>