<?xml version="1.0" encoding="utf-8"?><svg viewBox="0 0 100 100" xmlns="http://www.w3.org/2000/svg" xmlns:xlink="http://www.w3.org/1999/xlink" style="width:100%;height:100%;background-size:initial;background-repeat-y:initial;background-repeat-x:initial;background-position-y:initial;background-position-x:initial;background-origin:initial;background-color:initial;background-clip:initial;background-attachment:initial;animation-play-state:paused" ><g class="ldl-scale" style="transform-origin:50% 50%;transform:rotate(0deg) scale(0.8, 0.8);animation-play-state:paused" ><circle fill="none" r="15" cy="41.829" cx="50" style="animation-play-state:paused" ></circle>
<path fill="#e15b64" d="M50 12.037c-16.453 0-29.792 13.338-29.792 29.792 0 13.064 8.412 24.156 20.112 28.175l6.104 15.523c1.277 3.248 5.874 3.248 7.152 0l6.104-15.523c11.7-4.019 20.112-15.111 20.112-28.175 0-16.454-13.339-29.792-29.792-29.792zm0 44.792c-8.284 0-15-6.716-15-15 0-8.284 6.716-15 15-15 8.284 0 15 6.716 15 15 0 8.284-6.716 15-15 15z" style="fill:rgb(255, 255, 255);animation-play-state:paused" ></path>
<metadata xmlns:d="https://loading.io/stock/" style="animation-play-state:paused" ><d:name style="animation-play-state:paused" >map</d:name>


<d:tags style="animation-play-state:paused" >map,marker,location,position,gps,latitude,longitude,place,pin</d:tags>


<d:license style="animation-play-state:paused" >by</d:license>


<d:slug style="animation-play-state:paused" >37qkz6</d:slug></metadata></g><!-- generated by https://loading.io/ --></svg>